<svg width="109" height="109" viewBox="0 0 109 109" fill="none" xmlns="http://www.w3.org/2000/svg">
<path fill-rule="evenodd" clip-rule="evenodd" d="M54.5 100.924C28.9045 100.924 8.07567 80.1007 8.07567 54.4999C8.08091 28.8991 28.9045 8.07559 54.5 8.07559C80.0955 8.07559 100.924 28.8991 100.924 54.4999C100.924 80.0955 80.0955 100.924 54.5 100.924ZM54.5 0C24.4471 0 0 24.4523 0 54.5052C0 84.5581 24.4471 109.005 54.5 109.005C84.5529 109.005 109 84.5581 109 54.5052C109 24.4471 84.5529 0 54.5 0Z" fill="black"/>
<path fill-rule="evenodd" clip-rule="evenodd" d="M54.5 21.4261C55.9736 21.4261 57.1744 20.2305 57.1744 18.7517V13.403C57.1744 11.9242 55.9736 10.7285 54.5 10.7285C53.0213 10.7285 51.8257 11.9242 51.8257 13.403V18.7517C51.8257 20.2305 53.0213 21.4261 54.5 21.4261Z" fill="black"/>
<path fill-rule="evenodd" clip-rule="evenodd" d="M54.5 86.9648C53.0213 86.9648 51.8257 88.1657 51.8257 89.6392V94.988C51.8257 96.4668 53.0213 97.6624 54.5 97.6624C55.9736 97.6624 57.1744 96.4616 57.1744 94.988V89.6392C57.1744 88.1657 55.9736 86.9648 54.5 86.9648Z" fill="black"/>
<path fill-rule="evenodd" clip-rule="evenodd" d="M19.0561 51.521H13.7073C12.2285 51.521 11.033 52.7218 11.033 54.1954C11.033 55.6741 12.2285 56.8698 13.7073 56.8698H19.0561C20.5297 56.8698 21.7305 55.6689 21.7305 54.1954C21.7305 52.7218 20.5297 51.521 19.0561 51.521Z" fill="black"/>
<path fill-rule="evenodd" clip-rule="evenodd" d="M95.2927 51.521H89.944C88.4704 51.521 87.2695 52.7218 87.2695 54.1954C87.2695 55.6741 88.4652 56.8698 89.944 56.8698H95.2927C96.7715 56.8698 97.9672 55.6689 97.9672 54.1954C97.9672 52.7218 96.7715 51.521 95.2927 51.521Z" fill="black"/>
<path fill-rule="evenodd" clip-rule="evenodd" d="M57.1741 48.5742V31.4581C57.1741 29.9793 55.9733 28.7837 54.4998 28.7837C53.021 28.7837 51.8254 29.9845 51.8254 31.4581V48.6109C48.915 50.0529 47.562 53.5087 48.9464 56.5869L26.3766 74.1225C25.2073 75.035 24.9975 76.713 25.9047 77.8772C26.8119 79.0466 28.4952 79.2563 29.6594 78.3491L53.1993 60.0583C60.2681 61.6367 63.7343 51.7311 57.1741 48.5742Z" fill="black"/>
</svg>
