<svg width="16" height="20" viewBox="0 0 16 20" fill="none" xmlns="http://www.w3.org/2000/svg">
<path fill-rule="evenodd" clip-rule="evenodd" d="M7.99997 10.122L13.303 15.425C13.5844 15.7064 13.966 15.8645 14.364 15.8645C14.7619 15.8645 15.1436 15.7064 15.425 15.425C15.7064 15.1436 15.8645 14.762 15.8645 14.364C15.8645 13.966 15.7064 13.5844 15.425 13.303L10.12 8L15.424 2.697C15.5632 2.55767 15.6737 2.39227 15.749 2.21025C15.8244 2.02823 15.8631 1.83315 15.8631 1.63615C15.8631 1.43915 15.8242 1.24408 15.7488 1.0621C15.6733 0.880113 15.5628 0.714766 15.4235 0.5755C15.2841 0.436233 15.1187 0.325773 14.9367 0.250428C14.7547 0.175082 14.5596 0.136326 14.3626 0.136373C14.1656 0.136419 13.9706 0.175267 13.7886 0.250698C13.6066 0.326129 13.4412 0.436667 13.302 0.576L7.99997 5.879L2.69697 0.576C2.55867 0.432671 2.3932 0.318321 2.21024 0.239622C2.02727 0.160923 1.83046 0.119452 1.63129 0.117628C1.43212 0.115804 1.23459 0.153664 1.05021 0.228998C0.865828 0.304333 0.698298 0.415633 0.557394 0.556405C0.416489 0.697177 0.305031 0.864602 0.229522 1.04891C0.154014 1.23322 0.115968 1.43072 0.117604 1.62989C0.119241 1.82906 0.160526 2.0259 0.239052 2.20895C0.317578 2.39199 0.431772 2.55756 0.57497 2.696L5.87997 8L0.575971 13.304C0.432772 13.4424 0.318578 13.608 0.240052 13.7911C0.161526 13.9741 0.12024 14.1709 0.118604 14.3701C0.116968 14.5693 0.155014 14.7668 0.230522 14.9511C0.30603 15.1354 0.417489 15.3028 0.558394 15.4436C0.699298 15.5844 0.866828 15.6957 1.05121 15.771C1.23559 15.8463 1.43312 15.8842 1.63229 15.8824C1.83146 15.8805 2.02827 15.8391 2.21124 15.7604C2.3942 15.6817 2.55967 15.5673 2.69797 15.424L7.99997 10.122Z" fill="#FFF2F2"/>
</svg>
