<svg width="697" height="542" viewBox="0 0 697 542" fill="none" xmlns="http://www.w3.org/2000/svg">
<rect x="4.39697" width="689" height="542" rx="49" fill="#DFE3E4" fill-opacity="0.5"/>
<circle cx="656.397" cy="30" r="17" fill="white"/>
<circle cx="655.897" cy="72.5" r="11.5" fill="white"/>
<circle cx="610.897" cy="29.5" r="11.5" fill="white"/>
<path d="M571.301 199.27L696.835 189.21L616.282 519.03H60.7671L0.00146484 352.51L88.9351 351.521L117.137 127.89L250.778 177.71L469.196 17L571.301 199.27Z" fill="#FFE9D2"/>
<path d="M673.535 205.756L644.059 324.928L669.925 287.832L673.535 205.756Z" fill="#FFE9D2"/>
<path d="M621.354 110.227L468.204 434.634L397.326 435.804L397.309 434.634L394.678 290.384L576.651 113.334L621.354 110.227Z" fill="#FFDDB8"/>
<path d="M254.941 434.634H81.3212L81.2222 432.941L60.9512 267.348L81.0062 267.126L81.7202 261.222L251.483 404.766L254.941 434.634Z" fill="#FFDDB8"/>
<path d="M616.397 517H58.397V519H616.397V517Z" fill="#48393E"/>
<path d="M0.00012207 314.958L37.3851 418.376L13.2641 398.899L0.00012207 314.958Z" fill="#FFE9D2"/>
<path d="M142.822 40.5457L205.049 61.5968V20.4167L191.885 42.6608L142.822 40.5457Z" fill="#FFE9D2"/>
<path d="M82.7251 394.049C81.7651 394.05 80.8221 393.905 79.9321 393.614C78.2451 393.061 76.7151 391.967 75.5381 390.503C71.2751 392.917 66.1771 393.894 61.3491 393.092L61.5131 392.106C66.0821 392.865 70.9021 391.953 74.9461 389.691C74.7211 389.35 74.5141 388.993 74.3271 388.622C73.1141 386.219 72.8641 383.494 73.6411 381.146C74.2071 379.437 75.4791 377.928 76.9611 377.209C78.0061 376.699 79.0881 376.622 80.0881 376.985C82.2001 377.751 83.1271 380.275 82.8041 382.273C82.5261 383.991 81.5201 385.665 79.7271 387.391C78.7121 388.367 77.5971 389.234 76.4051 389.985C77.4481 391.244 78.7811 392.184 80.2431 392.663C82.3411 393.351 84.7861 393.113 86.9511 392.013C89.1161 390.912 90.7471 389.077 91.4281 386.975L92.3791 387.284C91.6171 389.636 89.8031 391.685 87.4031 392.905C85.9141 393.662 84.2991 394.049 82.7251 394.049ZM78.8191 377.762C78.2581 377.762 77.7631 377.931 77.3981 378.109C76.1691 378.705 75.0681 380.02 74.5911 381.461C73.8971 383.558 74.1271 386.004 75.2201 388.172C75.3971 388.524 75.5941 388.861 75.8071 389.182C76.9651 388.458 78.0501 387.618 79.0341 386.672C80.6651 385.102 81.5761 383.611 81.8171 382.114C82.0751 380.518 81.3721 378.514 79.7481 377.926C79.4271 377.809 79.1141 377.762 78.8191 377.762Z" fill="#F6B163"/>
<path d="M484.694 160.197C482.268 160.197 479.804 159.153 477.909 157.318C475.975 155.445 474.845 152.954 474.809 150.482C474.783 148.707 475.321 146.904 476.322 145.315C472.654 142.068 470.073 137.566 469.261 132.738L470.247 132.572C471.015 137.139 473.443 141.401 476.897 144.49C477.146 144.167 477.417 143.855 477.707 143.558C479.585 141.629 482.081 140.507 484.554 140.478C486.354 140.45 488.196 141.171 489.358 142.339C490.178 143.164 490.602 144.162 490.585 145.223C490.548 147.469 488.463 149.166 486.468 149.51C484.753 149.805 482.84 149.399 480.626 148.263C479.374 147.621 478.191 146.847 477.095 145.965C476.242 147.361 475.787 148.926 475.81 150.465C475.842 152.673 476.861 154.908 478.605 156.597C480.35 158.286 482.633 159.253 484.826 159.194L484.844 160.194C484.793 160.197 484.743 160.197 484.694 160.197ZM477.66 145.14C478.722 146 479.867 146.752 481.083 147.375C483.097 148.408 484.804 148.784 486.298 148.526C487.892 148.251 489.557 146.935 489.585 145.208C489.602 144.215 489.085 143.484 488.648 143.045C487.686 142.077 486.071 141.447 484.566 141.479C482.357 141.504 480.118 142.517 478.423 144.256C478.149 144.539 477.894 144.834 477.66 145.14Z" fill="white"/>
<path d="M49.0311 240.524L48.3851 239.76C51.9181 236.765 54.3391 232.499 55.2281 227.951C54.8221 227.901 54.4151 227.829 54.0121 227.731C51.3941 227.102 49.1551 225.532 47.8671 223.421C46.9281 221.883 46.6001 219.938 47.0101 218.342C47.3001 217.214 47.9401 216.34 48.8621 215.813C50.8101 214.697 53.3361 215.621 54.6521 217.159C55.7841 218.484 56.4111 220.335 56.5671 222.817C56.6551 224.221 56.5951 225.634 56.3981 227.028C58.0201 227.032 59.6121 226.636 60.9231 225.832C62.8041 224.675 64.2041 222.656 64.7641 220.293C65.3241 217.931 64.9781 215.498 63.8151 213.62L64.6661 213.095C65.9671 215.197 66.3571 217.905 65.7371 220.524C65.1161 223.144 63.5531 225.389 61.4471 226.684C59.9341 227.614 58.1151 228.08 56.2331 228.025C55.3161 232.837 52.7661 237.357 49.0311 240.524ZM50.7831 216.314C50.2901 216.314 49.8031 216.426 49.3581 216.681C48.4961 217.174 48.1321 217.992 47.9781 218.592C47.6381 219.914 47.9291 221.606 48.7201 222.901C49.8711 224.786 51.8851 226.193 54.2451 226.759C54.6281 226.852 55.0121 226.919 55.3961 226.964C55.5931 225.612 55.6531 224.243 55.5671 222.88C55.4251 220.622 54.8761 218.963 53.8901 217.81C53.1511 216.945 51.9511 216.314 50.7831 216.314Z" fill="#2FB99F"/>
<path d="M497.599 35.7848C497.504 35.7848 497.411 35.7838 497.316 35.7808C494.626 35.7108 492.108 34.6398 490.41 32.8448C489.189 31.5548 488.366 29.8648 488.028 28.0168C483.125 28.1038 478.184 26.5398 474.319 23.5338L474.932 22.7448C478.588 25.5878 483.276 27.0918 487.894 27.0198C487.859 26.6128 487.847 26.1998 487.86 25.7848C487.938 23.0938 489.016 20.5788 490.817 18.8858C492.13 17.6528 493.958 16.9338 495.612 17.0048C496.775 17.0568 497.762 17.5038 498.468 18.2988C499.96 19.9778 499.573 22.6388 498.336 24.2418C497.273 25.6208 495.59 26.6138 493.192 27.2758C491.836 27.6508 490.441 27.8808 489.037 27.9738C489.354 29.5778 490.078 31.0388 491.136 32.1568C492.654 33.7608 494.915 34.7178 497.342 34.7808C499.77 34.8488 502.08 34.0078 503.68 32.4838L504.37 33.2088C502.641 34.8538 500.187 35.7848 497.599 35.7848ZM495.383 18.0008C494.062 18.0008 492.558 18.6218 491.502 19.6148C489.893 21.1278 488.93 23.3868 488.858 25.8138C488.846 26.2078 488.859 26.5978 488.894 26.9828C490.256 26.8978 491.61 26.6758 492.926 26.3128C495.107 25.7108 496.617 24.8338 497.544 23.6318C498.531 22.3518 498.867 20.2558 497.719 18.9638C497.06 18.2218 496.184 18.0328 495.566 18.0048C495.506 18.0018 495.444 18.0008 495.383 18.0008Z" fill="#2FB99F"/>
<path d="M51.2702 146.242C50.5872 141.061 54.1262 135.703 59.1602 134.298C59.8872 134.095 60.6692 133.947 61.4252 133.803C63.7132 133.369 65.8732 132.959 66.7702 131.173C67.3922 129.934 67.1162 128.486 66.8252 126.953C66.5482 125.497 66.2622 123.992 66.7362 122.55C67.3312 120.743 69.0072 119.354 71.7192 118.422C72.1612 118.27 72.6122 118.13 73.0632 117.99C74.6282 117.505 76.1062 117.046 77.2912 116.084C78.1592 115.38 78.7712 114.24 78.8542 113.179C78.8932 112.665 78.8262 111.926 78.2792 111.322L79.0212 110.651C79.6422 111.339 79.9292 112.239 79.8512 113.256C79.7472 114.597 79.0082 115.978 77.9222 116.86C76.5872 117.944 74.9472 118.452 73.3602 118.945C72.9192 119.082 72.4782 119.219 72.0452 119.367C69.6442 120.192 68.1782 121.368 67.6872 122.863C67.2932 124.06 67.5432 125.375 67.8092 126.767C68.1182 128.396 68.4392 130.08 67.6652 131.622C66.5472 133.851 64.0382 134.327 61.6132 134.787C60.8772 134.927 60.1162 135.071 59.4302 135.262C54.8582 136.538 51.6432 141.406 52.2632 146.112L51.2702 146.242Z" fill="#E76C6E"/>
<path d="M659.28 350.976C658.597 345.795 662.136 340.437 667.17 339.032C667.897 338.829 668.68 338.68 669.436 338.537C671.724 338.103 673.884 337.694 674.781 335.907C675.403 334.669 675.128 333.22 674.836 331.687C674.559 330.231 674.272 328.726 674.747 327.284C675.341 325.476 677.017 324.087 679.73 323.155C680.172 323.003 680.624 322.863 681.076 322.722C682.641 322.237 684.118 321.779 685.302 320.818C686.169 320.113 686.782 318.972 686.865 317.912C686.904 317.398 686.837 316.659 686.291 316.055L687.033 315.385C687.654 316.071 687.94 316.973 687.862 317.989C687.758 319.33 687.019 320.712 685.933 321.594C684.599 322.678 682.958 323.186 681.372 323.678C680.93 323.816 680.488 323.952 680.055 324.101C677.655 324.926 676.189 326.103 675.697 327.597C675.304 328.793 675.554 330.109 675.819 331.501C676.129 333.13 676.45 334.815 675.676 336.356C674.557 338.584 672.049 339.06 669.623 339.52C668.887 339.659 668.126 339.803 667.44 339.995C662.867 341.271 659.652 346.14 660.273 350.846L659.28 350.976Z" fill="#E76C6E"/>
<path d="M650.224 181.35C650.13 181.35 650.036 181.347 649.941 181.34C648.598 181.251 647.21 180.525 646.317 179.448C645.219 178.125 644.694 176.49 644.185 174.909C644.043 174.469 643.903 174.029 643.749 173.598C642.898 171.205 641.707 169.751 640.209 169.276C639.009 168.894 637.696 169.159 636.306 169.438C634.682 169.764 633.001 170.103 631.451 169.344C629.211 168.249 628.709 165.745 628.224 163.324C628.077 162.59 627.924 161.83 627.726 161.147C626.403 156.588 621.505 153.421 616.803 154.092L616.662 153.102C621.832 152.369 627.229 155.849 628.686 160.869C628.896 161.593 629.052 162.373 629.204 163.128C629.661 165.412 630.093 167.568 631.89 168.446C633.135 169.055 634.579 168.765 636.11 168.458C637.561 168.166 639.065 167.863 640.512 168.324C642.325 168.899 643.731 170.561 644.691 173.264C644.848 173.705 644.993 174.154 645.137 174.604C645.639 176.164 646.113 177.637 647.086 178.811C647.799 179.671 648.945 180.273 650.007 180.344C650.527 180.377 651.26 180.302 651.859 179.75L652.537 180.485C651.921 181.053 651.125 181.35 650.224 181.35Z" fill="white"/>
<path d="M570.344 405.66C566.678 405.66 563.695 402.678 563.695 399.012C563.695 395.346 566.678 392.363 570.344 392.363C574.01 392.363 576.992 395.346 576.992 399.012C576.992 402.678 574.01 405.66 570.344 405.66ZM570.344 393.363C567.229 393.363 564.695 395.897 564.695 399.012C564.695 402.126 567.229 404.66 570.344 404.66C573.458 404.66 575.992 402.126 575.992 399.012C575.992 395.897 573.458 393.363 570.344 393.363Z" fill="#F6B163"/>
<path d="M18.9532 298.985L18.4045 299.821L42.1444 315.402L42.6931 314.566L18.9532 298.985Z" fill="white"/>
<path d="M143.11 83.3603L142.54 84.1816L164.095 99.1544L164.665 98.3331L143.11 83.3603Z" fill="#F6B163"/>
<path d="M185.807 83.0398H184.807V110.228H185.807V83.0398Z" fill="#F6B163"/>
<path d="M441.689 417.521L440.71 417.312C441.157 415.223 438.986 412.951 438.964 412.927L439.682 412.231C439.788 412.339 442.248 414.907 441.689 417.521Z" fill="white"/>
<path d="M165.815 313.202C165.804 313.542 165.794 313.875 165.783 314.215C164.424 355.774 168.58 388.186 175.712 413.455L197.084 426.845L179.478 424.059L178.975 423.981C188.436 451.758 201.588 469.728 214.032 481.299C221.77 488.515 229.24 493.247 235.372 496.316C235.776 496.522 236.172 496.718 236.57 496.907C237.557 497.386 238.515 497.813 239.424 498.205L251.204 498.861C251.368 498.313 251.522 497.773 251.669 497.225C251.771 496.881 251.865 496.537 251.951 496.193C252.084 495.743 252.202 495.284 252.318 494.833C266.423 441.228 249.021 398.373 226.203 367.79C226.142 367.688 226.065 367.591 225.979 367.487C218.039 356.874 209.443 347.739 201.309 340.16L196.056 353.404L195.37 334.822C181.197 322.499 169.4 315.298 166.501 313.597C166.049 313.331 165.815 313.202 165.815 313.202Z" fill="#2FB99F"/>
<path d="M165.397 313.395L165.783 314.215L189.806 364.956L190.238 365.853L196.785 379.688L197.009 380.15L217.892 424.254L217.922 424.314L251.951 496.193L252.465 497.269L253.277 498.977L254.305 499.035L253.502 497.327L252.318 494.833L218.735 423.902L218.11 422.586L166.5 313.598L166.217 313L165.397 313.395Z" fill="white"/>
<path d="M167.225 359.222L166.774 359.872L196.704 380.608L197.155 379.958L167.225 359.222Z" fill="white"/>
<path d="M167.064 349.202L166.613 349.852L190.073 366.106L190.524 365.456L167.064 349.202Z" fill="white"/>
<path d="M225.459 367.399L217.888 424.296L218.673 424.4L226.244 367.503L225.459 367.399Z" fill="white"/>
<path d="M439.333 499.306C439.333 499.306 471.215 498.664 497.05 458.499L482.33 458.771L502.158 449.883C511.505 432.725 519.636 409.617 524.53 378.492L518.914 378.599L524.923 375.901C525.721 370.6 526.425 365.066 527.024 359.293C527.024 359.293 515.763 363.7 501.232 373.152L498.648 387.805L495.942 376.737C466.794 397.2 429.112 436.545 439.333 499.306Z" fill="#F6B163"/>
<path d="M526.647 359.023L435.792 497.6L436.564 498.106L527.419 359.529L526.647 359.023Z" fill="white"/>
<path d="M522.659 388.015L503.381 395.246L503.682 396.048L522.96 388.817L522.659 388.015Z" fill="white"/>
<path d="M520.35 397.789L497.069 404.614L497.311 405.437L520.592 398.612L520.35 397.789Z" fill="white"/>
<path d="M446.094 437.215L445.09 436.811C451.089 421.909 460.472 407.947 472.978 395.313L473.748 396.075C461.343 408.606 452.039 422.447 446.094 437.215Z" fill="#3F3747"/>
<path d="M432.883 121.137L418.989 135.48L419.708 136.176L433.602 121.833L432.883 121.137Z" fill="#E76C6E"/>
<path d="M445.245 137.838L423.376 149.083L423.833 149.971L445.702 138.726L445.245 137.838Z" fill="#E76C6E"/>
<path d="M314.475 485.707L324.779 465.34L307.892 459.419L300.936 480.96L314.475 485.707Z" fill="#FFB486"/>
<path d="M314.1 499.903C315.051 500.205 316.048 499.598 316.217 498.614L318.792 483.583C318.918 482.344 317.752 481.374 316.555 481.716C309.5 483.731 303.928 480.225 301.74 476.847C301.095 475.851 299.783 475.508 298.706 476.007C297.164 476.72 294.938 477.568 292.699 477.796C287.726 478.3 273.172 477.949 270.383 480.148C269.849 480.569 269.078 482.22 268.528 483.52C268.151 484.412 268.621 485.433 269.544 485.727L314.1 499.903Z" fill="#48393E"/>
<path d="M453.116 468.118L445.728 451.053L429.128 459.13L440.263 474.216C440.263 474.216 445.242 479.505 450.001 476.9C455.107 474.106 453.116 468.118 453.116 468.118Z" fill="#FFB486"/>
<path d="M420.668 498.403L443.694 498.43L463.988 477.174C464.872 476.248 464.858 474.786 463.956 473.877L455.17 465.021C454.507 464.353 453.353 464.651 453.123 465.564C451.017 473.926 442.229 473.684 438.714 473.234C437.866 473.125 437.073 473.658 436.842 474.481C435.997 477.498 434.033 484.177 432.767 485.873C430.455 488.97 427.353 490.615 424.605 492.042C419.07 494.917 420.668 498.403 420.668 498.403Z" fill="#48393E"/>
<path d="M322.124 473.546L303.321 464.338C313.566 402.616 356.222 256.505 356.222 256.505L400.967 256.55C403.235 270.7 393.518 306.354 382.383 336.593C369.941 370.38 364.251 375.526 361.501 392.919C356.048 427.403 322.124 473.546 322.124 473.546Z" fill="#2FB99F"/>
<path d="M316.936 471.1L316.126 470.514C316.399 470.136 343.561 432.232 352.875 392.311C360.167 361.063 374.31 342.014 374.452 341.826L375.251 342.428C375.11 342.614 361.09 361.509 353.85 392.538C344.488 432.659 317.211 470.721 316.936 471.1Z" fill="white"/>
<path d="M447.401 452.842C438.502 463.629 431.296 464.337 431.296 464.337C431.296 464.337 383.014 410.319 374.853 391.169C363.919 365.51 360.287 261.016 360.287 261.016C360.287 261.016 400.105 262.318 403.844 268.336C416.771 289.145 418.204 305.353 413.619 355.787C413.263 359.707 412.598 371.106 414.405 374.263C419.667 383.456 429.832 398.807 435.704 412.467C442.424 428.099 447.401 452.842 447.401 452.842Z" fill="#2FB99F"/>
<path d="M443.358 457.54C443.248 457.098 432.056 413.014 410.504 385.842C404.923 378.807 402.429 374.003 403.347 365.732C408.034 323.531 401.39 286.465 392.405 271.664L393.261 271.144C402.333 286.091 409.053 323.418 404.342 365.842C403.462 373.765 405.881 378.403 411.288 385.221C432.976 412.564 444.219 456.854 444.33 457.298L443.358 457.54Z" fill="white"/>
<path d="M374.392 391.366C369.836 380.674 365.994 355.492 362.972 316.521L356.954 309.167L357.727 308.534L363.944 316.131L363.956 316.287C366.93 354.69 370.855 380.516 375.311 390.973L374.392 391.366Z" fill="#48393E"/>
<path d="M368.319 178.262C368.319 178.262 371.546 169.223 370.512 153.868L383.589 148.687C383.589 148.687 384.732 160.765 392.704 175.203C385.363 180.203 367.675 191.048 368.319 178.262Z" fill="#FFB486"/>
<path d="M343.405 278.279C369.734 300.951 420.234 289.51 420.234 289.51C420.234 289.51 416.344 270.049 416.185 259.619C415.683 226.85 419.774 193.058 390.904 170.031C384.939 174.112 369.821 185.545 368.84 176.674C337.008 206.694 343.405 278.279 343.405 278.279Z" fill="#F47557"/>
<path d="M317.524 193.309L307.156 159.615C306.993 159.078 307.64 158.472 308.213 158.625L313.686 160.044C314.129 160.155 314.455 160.452 314.58 160.859L324.659 193.135C324.809 193.609 324.248 194.241 323.69 194.227L318.593 194.069C318.066 194.05 317.667 193.766 317.524 193.309Z" fill="#48393E"/>
<path d="M317.62 193.892C317.39 193.934 317.161 193.798 317.091 193.569L306.675 159.404C306.6 159.158 306.739 158.897 306.985 158.822C307.234 158.743 307.491 158.886 307.566 159.132L317.982 193.297C318.057 193.543 317.918 193.804 317.672 193.879C317.656 193.885 317.638 193.889 317.62 193.892Z" fill="white"/>
<path d="M324.421 204.848C324.421 204.848 315.653 195.919 314.132 192.067C312.848 188.815 312.445 176.326 313.93 175.993C316.962 175.314 319.575 188.986 322.47 189.385C323.315 189.502 322.932 184.509 324.194 184.748C324.956 184.892 325.475 186.702 326.156 189.7C326.551 191.438 329.195 201.134 329.195 201.134L324.421 204.848Z" fill="#FFB486"/>
<path d="M389.704 239.403C388.716 241.92 379.962 237.212 372.521 231.912C365.08 226.612 359.894 221.129 360.937 219.665C361.98 218.201 368.857 221.31 376.298 226.61C383.738 231.909 390.595 237.131 389.704 239.403Z" fill="#48393E"/>
<path d="M384.701 186.382C368.019 185.486 362.107 226.047 362.107 226.047L328 197.645L321.969 202.258C321.969 202.258 338.084 234.289 349.156 248.097C354.495 254.755 372.457 265.012 382.281 245.035C389.362 230.636 410.777 187.782 384.701 186.382Z" fill="#FFB486"/>
<path d="M355.734 136.383C355.734 136.383 351.68 131.947 354.185 127.52C355.992 124.326 361.316 124.141 361.316 124.141C359.518 126.314 355.734 136.383 355.734 136.383Z" fill="#48393E"/>
<path d="M383.76 155.968C381.039 158.65 369.64 165.916 362.674 164.094C353.867 161.79 352.617 128.744 360.898 123.553C365.348 120.764 376.47 122.772 381.823 130.955C387.177 139.136 387.393 152.387 383.76 155.968Z" fill="#FFB486"/>
<path d="M376.863 146.519C376.863 146.519 376.157 142.124 376.017 142.164C368.027 144.304 357.283 138.979 356.063 130.699C354.443 119.689 371.293 111.819 384.123 118.379C396.543 124.719 396.177 133.239 398.123 140.755C399.822 147.318 421.27 143.62 410.377 167.914L388.584 173.049C381.116 169.002 371.77 158.552 376.863 146.519Z" fill="#48393E"/>
<path d="M388.827 110.374C400.188 110.171 400.673 122.776 390.093 126.261L377.531 118.104C376.814 111.032 382.095 106.499 388.827 110.374Z" fill="#48393E"/>
<path d="M374.484 117.671C374.054 114.373 376.411 109.099 379.983 107.496C381.825 106.668 384.706 106.469 387.962 110.225L387.206 110.88C384.949 108.276 382.594 107.421 380.392 108.408C377.285 109.803 375.091 114.596 375.476 117.542L374.484 117.671Z" fill="#48393E"/>
<path d="M367.733 142.928C364.074 142.928 361.173 141.963 359.077 140.041C355.161 136.451 355.547 130.895 355.565 130.661L356.561 130.739C356.557 130.792 356.202 136.056 359.759 139.311C362.372 141.702 366.435 142.457 371.822 141.565L371.986 142.551C370.472 142.802 369.053 142.928 367.733 142.928Z" fill="#48393E"/>
<path d="M369.998 144.53C369.355 146.781 370.875 150.25 373.125 150.893C375.376 151.536 377.506 149.108 378.149 146.857C378.792 144.606 377.488 142.261 375.237 141.618C372.986 140.975 370.641 142.279 369.998 144.53Z" fill="#FFB486"/>
<path d="M392.3 127.983L391.871 127.08C391.967 127.035 401.375 122.475 398.896 116.172C396.391 109.798 387.745 111.035 387.658 111.047L387.508 110.059C387.602 110.042 397.033 108.697 399.828 115.806C402.647 122.976 392.405 127.933 392.3 127.983Z" fill="#48393E"/>
<path d="M367.674 164.645L367.512 163.659C367.566 163.65 372.912 162.754 375.194 160.985L375.807 161.775C373.324 163.7 367.903 164.608 367.674 164.645Z" fill="#48393E"/>
<path d="M389.749 238.658C389.719 236.638 383.113 231.461 376.293 226.611C369.553 221.811 363.283 218.801 361.383 219.371C362.203 214.901 369.863 176.631 390.123 185.121C413.453 194.891 389.749 238.658 389.749 238.658Z" fill="#F47557"/>
<path d="M361.81 220.28L360.82 220.144C360.96 219.12 364.395 194.976 376.983 186.79C381.162 184.073 385.894 183.452 391.054 184.944L390.777 185.905C385.908 184.497 381.454 185.076 377.53 187.628C365.326 195.562 361.844 220.033 361.81 220.28Z" fill="#48393E"/>
<path d="M389.433 239.903L388.718 239.203C389.266 238.449 397.954 221.256 399.136 206.784L400.132 206.865C398.908 221.875 389.849 239.477 389.433 239.903Z" fill="#48393E"/>
<path d="M393.606 285.819C364.577 285.819 343.069 272.929 342.796 272.763L343.317 271.909C343.66 272.119 378.173 292.787 418.7 281.399L418.969 282.362C410.139 284.844 401.586 285.819 393.606 285.819Z" fill="white"/>
<path d="M393.605 281.821C364.576 281.821 343.068 268.929 342.796 268.763L343.317 267.909C343.658 268.117 377.82 288.579 418.07 277.574L418.334 278.539C409.729 280.891 401.394 281.821 393.605 281.821Z" fill="white"/>
<path d="M436.158 491.4C433.03 491.4 430.343 488.698 430.226 488.579L430.94 487.879C430.966 487.906 433.601 490.528 436.399 490.394L436.456 491.392C436.356 491.397 436.256 491.4 436.158 491.4Z" fill="white"/>
<path d="M437.197 486.39C434.785 486.39 433.24 484.967 433.163 484.895L433.848 484.166C433.924 484.238 435.771 485.915 438.519 485.223L438.763 486.194C438.209 486.332 437.685 486.39 437.197 486.39Z" fill="white"/>
<path d="M246.449 495.608C246.449 495.608 209.484 510.795 159.728 477.535L176.782 470.495L149.554 470.184C130.241 455.132 109.353 432.633 88.1806 399.305L94.6886 396.623L86.4336 396.523C82.8686 390.829 79.2956 384.82 75.7236 378.484C75.7236 378.484 90.8676 377.924 112.29 381.53L122.579 397.081L120.161 383.007C163.886 391.968 226.848 418.369 246.449 495.608Z" fill="#E76C6E"/>
<path d="M76.0309 377.982L75.397 378.949L249.041 492.829L249.675 491.862L76.0309 377.982Z" fill="white"/>
<path d="M120.868 408.037L95.0999 409.355L95.1547 410.428L120.923 409.109L120.868 408.037Z" fill="white"/>
<path d="M132.733 415.592L102.566 419.375L102.7 420.441L132.867 416.659L132.733 415.592Z" fill="white"/>
<path d="M207.665 427.621L208.618 426.655C194.28 412.524 176.522 401.163 155.837 392.889L155.333 394.149C175.848 402.355 193.456 413.616 207.665 427.621Z" fill="#3F3747"/>
</svg>
