<svg width="444" height="72" viewBox="0 0 444 72" fill="none" xmlns="http://www.w3.org/2000/svg">
<path d="M0.454546 0.181816H10.5455L34.2727 58.1364H35.0909L58.8182 0.181816H68.9091V70H61V16.9545H60.3182L38.5 70H30.8636L9.04546 16.9545H8.36364V70H0.454546V0.181816ZM106.724 71.0909C101.679 71.0909 97.3267 69.9773 93.6676 67.75C90.0312 65.5 87.2244 62.3636 85.2472 58.3409C83.2926 54.2955 82.3153 49.5909 82.3153 44.2273C82.3153 38.8636 83.2926 34.1364 85.2472 30.0455C87.2244 25.9318 89.9744 22.7273 93.4972 20.4318C97.0426 18.1136 101.179 16.9545 105.906 16.9545C108.634 16.9545 111.327 17.4091 113.986 18.3182C116.645 19.2273 119.065 20.7045 121.247 22.75C123.429 24.7727 125.168 27.4545 126.463 30.7955C127.759 34.1364 128.406 38.25 128.406 43.1364V46.5455H88.0426V39.5909H120.224C120.224 36.6364 119.634 34 118.452 31.6818C117.293 29.3636 115.634 27.5341 113.474 26.1932C111.338 24.8523 108.815 24.1818 105.906 24.1818C102.702 24.1818 99.929 24.9773 97.5881 26.5682C95.2699 28.1364 93.4858 30.1818 92.2358 32.7045C90.9858 35.2273 90.3608 37.9318 90.3608 40.8182V45.4545C90.3608 49.4091 91.0426 52.7614 92.4062 55.5114C93.7926 58.2386 95.7131 60.3182 98.1676 61.75C100.622 63.1591 103.474 63.8636 106.724 63.8636C108.838 63.8636 110.747 63.5682 112.452 62.9773C114.179 62.3636 115.668 61.4545 116.918 60.25C118.168 59.0227 119.134 57.5 119.815 55.6818L127.588 57.8636C126.77 60.5 125.395 62.8182 123.463 64.8182C121.531 66.7955 119.145 68.3409 116.304 69.4545C113.463 70.5455 110.27 71.0909 106.724 71.0909ZM160.418 71.0909C156.054 71.0909 152.202 69.9886 148.861 67.7841C145.52 65.5568 142.906 62.4205 141.02 58.375C139.134 54.3068 138.19 49.5 138.19 43.9545C138.19 38.4545 139.134 33.6818 141.02 29.6364C142.906 25.5909 145.531 22.4659 148.895 20.2614C152.259 18.0568 156.145 16.9545 160.554 16.9545C163.963 16.9545 166.656 17.5227 168.634 18.6591C170.634 19.7727 172.156 21.0455 173.202 22.4773C174.27 23.8864 175.099 25.0455 175.69 25.9545H176.372V0.181816H184.418V70H176.645V61.9545H175.69C175.099 62.9091 174.259 64.1136 173.168 65.5682C172.077 67 170.52 68.2841 168.497 69.4205C166.474 70.5341 163.781 71.0909 160.418 71.0909ZM161.509 63.8636C164.736 63.8636 167.463 63.0227 169.69 61.3409C171.918 59.6364 173.611 57.2841 174.77 54.2841C175.929 51.2614 176.509 47.7727 176.509 43.8182C176.509 39.9091 175.94 36.4886 174.804 33.5568C173.668 30.6023 171.986 28.3068 169.759 26.6705C167.531 25.0114 164.781 24.1818 161.509 24.1818C158.099 24.1818 155.259 25.0568 152.986 26.8068C150.736 28.5341 149.043 30.8864 147.906 33.8636C146.793 36.8182 146.236 40.1364 146.236 43.8182C146.236 47.5455 146.804 50.9318 147.94 53.9773C149.099 57 150.804 59.4091 153.054 61.2045C155.327 62.9773 158.145 63.8636 161.509 63.8636ZM197.543 7.68182V0.181816H249.906V7.68182H227.952V70H219.497V7.68182H197.543ZM256.426 70V17.6364H264.199V25.5455H264.744C265.699 22.9545 267.426 20.8523 269.926 19.2386C272.426 17.625 275.244 16.8182 278.381 16.8182C278.972 16.8182 279.71 16.8295 280.597 16.8523C281.483 16.875 282.153 16.9091 282.608 16.9545V25.1364C282.335 25.0682 281.71 24.9659 280.733 24.8295C279.778 24.6705 278.767 24.5909 277.699 24.5909C275.153 24.5909 272.881 25.125 270.881 26.1932C268.903 27.2386 267.335 28.6932 266.176 30.5568C265.04 32.3977 264.472 34.5 264.472 36.8636V70H256.426ZM307.554 71.2273C304.236 71.2273 301.224 70.6023 298.52 69.3523C295.815 68.0795 293.668 66.25 292.077 63.8636C290.486 61.4545 289.69 58.5455 289.69 55.1364C289.69 52.1364 290.281 49.7045 291.463 47.8409C292.645 45.9545 294.224 44.4773 296.202 43.4091C298.179 42.3409 300.361 41.5455 302.747 41.0227C305.156 40.4773 307.577 40.0455 310.009 39.7273C313.19 39.3182 315.77 39.0114 317.747 38.8068C319.747 38.5795 321.202 38.2045 322.111 37.6818C323.043 37.1591 323.509 36.25 323.509 34.9545V34.6818C323.509 31.3182 322.588 28.7045 320.747 26.8409C318.929 24.9773 316.168 24.0455 312.463 24.0455C308.622 24.0455 305.611 24.8864 303.429 26.5682C301.247 28.25 299.713 30.0455 298.827 31.9545L291.19 29.2273C292.554 26.0455 294.372 23.5682 296.645 21.7955C298.94 20 301.44 18.75 304.145 18.0455C306.872 17.3182 309.554 16.9545 312.19 16.9545C313.872 16.9545 315.804 17.1591 317.986 17.5682C320.19 17.9545 322.315 18.7614 324.361 19.9886C326.429 21.2159 328.145 23.0682 329.509 25.5455C330.872 28.0227 331.554 31.3409 331.554 35.5V70H323.509V62.9091H323.099C322.554 64.0455 321.645 65.2614 320.372 66.5568C319.099 67.8523 317.406 68.9545 315.293 69.8636C313.179 70.7727 310.599 71.2273 307.554 71.2273ZM308.781 64C311.963 64 314.645 63.375 316.827 62.125C319.031 60.875 320.69 59.2614 321.804 57.2841C322.94 55.3068 323.509 53.2273 323.509 51.0455V43.6818C323.168 44.0909 322.418 44.4659 321.259 44.8068C320.122 45.125 318.804 45.4091 317.304 45.6591C315.827 45.8864 314.384 46.0909 312.974 46.2727C311.588 46.4318 310.463 46.5682 309.599 46.6818C307.509 46.9545 305.554 47.3977 303.736 48.0114C301.94 48.6023 300.486 49.5 299.372 50.7045C298.281 51.8864 297.736 53.5 297.736 55.5455C297.736 58.3409 298.77 60.4545 300.838 61.8864C302.929 63.2955 305.577 64 308.781 64ZM367.511 71.0909C362.602 71.0909 358.375 69.9318 354.83 67.6136C351.284 65.2955 348.557 62.1023 346.648 58.0341C344.739 53.9659 343.784 49.3182 343.784 44.0909C343.784 38.7727 344.761 34.0795 346.716 30.0114C348.693 25.9205 351.443 22.7273 354.966 20.4318C358.511 18.1136 362.648 16.9545 367.375 16.9545C371.057 16.9545 374.375 17.6364 377.33 19C380.284 20.3636 382.705 22.2727 384.591 24.7273C386.477 27.1818 387.648 30.0455 388.102 33.3182H380.057C379.443 30.9318 378.08 28.8182 375.966 26.9773C373.875 25.1136 371.057 24.1818 367.511 24.1818C364.375 24.1818 361.625 25 359.261 26.6364C356.92 28.25 355.091 30.5341 353.773 33.4886C352.477 36.4205 351.83 39.8636 351.83 43.8182C351.83 47.8636 352.466 51.3864 353.739 54.3864C355.034 57.3864 356.852 59.7159 359.193 61.375C361.557 63.0341 364.33 63.8636 367.511 63.8636C369.602 63.8636 371.5 63.5 373.205 62.7727C374.909 62.0455 376.352 61 377.534 59.6364C378.716 58.2727 379.557 56.6364 380.057 54.7273H388.102C387.648 57.8182 386.523 60.6023 384.727 63.0795C382.955 65.5341 380.602 67.4886 377.67 68.9432C374.761 70.375 371.375 71.0909 367.511 71.0909ZM407.364 50.9091L407.227 40.9545H408.864L431.773 17.6364H441.727L417.318 42.3182H416.636L407.364 50.9091ZM399.864 70V0.181816H407.909V70H399.864ZM433.136 70L412.682 44.0909L418.409 38.5L443.364 70H433.136Z" fill="black"/>
</svg>
