<svg xmlns="http://www.w3.org/2000/svg" fill="none" viewBox="11.073667711598745 0.984 129.68495297805643 78.96600000000001" style="max-height: 500px" width="129.68495297805643" height="78.96600000000001">
<path fill="black" d="M73.0752 40.9475H77.298L81.8052 23.5834C82.0215 22.7522 82.7211 22.1879 83.5261 22.2447C84.3151 22.2928 84.9693 22.9345 85.0962 23.789L88.6475 47.5225L93.387 9.59929C93.5004 8.69521 94.2027 8.01715 95.0385 8.00403C95.8528 7.93987 96.5925 8.65 96.7273 9.55117L101.48 41.3645H129.311C130.243 41.3645 131 42.1913 131 43.2091C131 44.227 130.243 45.0538 129.311 45.0538H100.045C99.2172 45.0538 98.5123 44.399 98.3788 43.5066L95.2093 22.2972L90.4712 60.2102C90.3577 61.1143 89.6554 61.7938 88.8197 61.8055C88.8117 61.8055 88.805 61.8055 88.797 61.8055C87.9706 61.8055 87.2643 61.1522 87.1308 60.2583L82.9854 32.5585L80.1978 43.2952C79.9922 44.0884 79.3286 44.6367 78.573 44.6367H72.6412"/>
<path fill="black" d="M55.8233 44.4676C54.9755 44.4676 54.2893 43.7166 54.2893 42.7921C54.2893 41.8676 54.9755 41.1166 55.8233 41.1166H73.0751C73.1739 41.1166 73.2701 41.1283 73.3635 41.1487C73.716 38.75 73.5531 37.2685 73.505 36.9448C72.7667 28.0673 67.0139 21.6265 59.8138 21.6265C55.0169 21.6265 50.6258 24.4466 48.1546 28.9641C45.7061 24.3868 41.4939 21.625 36.7744 21.625C29.5757 21.625 23.8215 28.0658 23.0846 36.9433C23.0258 37.3356 22.7869 39.3989 23.5145 42.7644C24.5638 47.6187 26.9857 52.0341 30.5183 55.5309L48.1439 73L66.0713 55.5323C69.1861 52.4482 71.4343 48.6511 72.6426 44.4676H55.8233Z"/>
<path fill="black" d="M21.4973 86.7729H25.9891L30.7333 98.3473H30.9352L35.6794 86.7729H40.1712V104H36.6383V92.7872H36.4953L32.0371 103.916H29.6314L25.1732 92.7452H25.0302V104H21.4973V86.7729ZM48.993 104.252C47.6639 104.252 46.5199 103.983 45.561 103.445C44.6077 102.901 43.8731 102.133 43.3571 101.14C42.8412 100.142 42.5833 98.9614 42.5833 97.5987C42.5833 96.2697 42.8412 95.1032 43.3571 94.0994C43.8731 93.0957 44.5993 92.3134 45.5358 91.7526C46.4779 91.1918 47.5826 90.9114 48.85 90.9114C49.7024 90.9114 50.4959 91.0488 51.2305 91.3236C51.9707 91.5928 52.6156 91.9993 53.1652 92.5433C53.7203 93.0872 54.1521 93.7714 54.4606 94.5957C54.769 95.4145 54.9232 96.3734 54.9232 97.4725V98.4567H44.0133V96.236H51.5501C51.5501 95.7201 51.438 95.2631 51.2137 94.8649C50.9893 94.4668 50.6781 94.1555 50.28 93.9312C49.8874 93.7013 49.4304 93.5863 48.9089 93.5863C48.3649 93.5863 47.8826 93.7125 47.462 93.9649C47.0471 94.2116 46.7218 94.5453 46.4863 94.9659C46.2508 95.3808 46.1302 95.8435 46.1246 96.3538V98.4651C46.1246 99.1044 46.2423 99.6568 46.4779 100.122C46.719 100.588 47.0583 100.947 47.4957 101.199C47.9331 101.451 48.4518 101.577 49.0519 101.577C49.45 101.577 49.8145 101.521 50.1454 101.409C50.4762 101.297 50.7594 101.129 50.9949 100.905C51.2305 100.68 51.4099 100.405 51.5333 100.08L54.8475 100.299C54.6793 101.095 54.3344 101.791 53.8129 102.385C53.2969 102.974 52.6296 103.434 51.8109 103.764C50.9978 104.09 50.0584 104.252 48.993 104.252ZM62.0227 104.21C61.0413 104.21 60.1525 103.958 59.3562 103.453C58.5655 102.943 57.9374 102.194 57.4719 101.207C57.0121 100.215 56.7822 98.9979 56.7822 97.5567C56.7822 96.0762 57.0205 94.8453 57.4972 93.8639C57.9738 92.877 58.6075 92.1395 59.3982 91.6516C60.1945 91.1582 61.0665 90.9114 62.0143 90.9114C62.7377 90.9114 63.3405 91.0348 63.8228 91.2815C64.3106 91.5227 64.7032 91.8255 65.0004 92.19C65.3032 92.5489 65.5331 92.9022 65.6902 93.2499H65.7995V86.7729H69.3745V104H65.8416V101.931H65.6902C65.5219 102.29 65.2836 102.646 64.9752 102.999C64.6723 103.347 64.277 103.635 63.7891 103.865C63.3068 104.095 62.718 104.21 62.0227 104.21ZM63.1582 101.359C63.7358 101.359 64.2237 101.202 64.6219 100.888C65.0256 100.568 65.3341 100.122 65.5472 99.5502C65.7659 98.9782 65.8752 98.3081 65.8752 97.5398C65.8752 96.7716 65.7687 96.1042 65.5556 95.5378C65.3425 94.9715 65.034 94.5341 64.6303 94.2256C64.2265 93.9172 63.7358 93.763 63.1582 93.763C62.5694 93.763 62.0731 93.9228 61.6694 94.2424C61.2656 94.5621 60.96 95.0051 60.7525 95.5715C60.545 96.1379 60.4413 96.794 60.4413 97.5398C60.4413 98.2913 60.545 98.9558 60.7525 99.5334C60.9656 100.105 61.2712 100.554 61.6694 100.879C62.0731 101.199 62.5694 101.359 63.1582 101.359ZM72.0347 88.6234V86.7729H84.955V88.6234H79.5379V104H77.4518V88.6234H72.0347ZM86.5637 104V91.0797H88.4816V93.0312H88.6162C88.8517 92.3919 89.2779 91.8732 89.8948 91.475C90.5116 91.0768 91.207 90.8778 91.9809 90.8778C92.1267 90.8778 92.3089 90.8806 92.5276 90.8862C92.7463 90.8918 92.9118 90.9002 93.0239 90.9114V92.9302C92.9566 92.9134 92.8024 92.8882 92.5613 92.8545C92.3258 92.8153 92.0762 92.7956 91.8126 92.7956C91.1846 92.7956 90.6238 92.9274 90.1303 93.191C89.6424 93.4489 89.2555 93.8078 88.9695 94.2677C88.6891 94.7219 88.5489 95.2406 88.5489 95.8238V104H86.5637ZM99.1792 104.303C98.3604 104.303 97.6174 104.149 96.9501 103.84C96.2827 103.526 95.7528 103.075 95.3603 102.486C94.9677 101.891 94.7714 101.174 94.7714 100.333C94.7714 99.5923 94.9173 98.9922 95.2089 98.5324C95.5005 98.067 95.8902 97.7025 96.3781 97.4389C96.866 97.1753 97.4043 96.979 97.9931 96.8501C98.5875 96.7155 99.1848 96.6089 99.7848 96.5304C100.57 96.4295 101.206 96.3538 101.694 96.3033C102.188 96.2472 102.547 96.1547 102.771 96.0257C103.001 95.8967 103.116 95.6724 103.116 95.3528V95.2855C103.116 94.4555 102.889 93.8106 102.434 93.3508C101.986 92.891 101.305 92.6611 100.39 92.6611C99.4427 92.6611 98.6997 92.8685 98.1614 93.2835C97.623 93.6985 97.2445 94.1415 97.0258 94.6126L95.1416 93.9396C95.478 93.1545 95.9267 92.5433 96.4874 92.1059C97.0538 91.6629 97.6707 91.3544 98.338 91.1806C99.0109 91.0011 99.6727 90.9114 100.323 90.9114C100.738 90.9114 101.215 90.9619 101.753 91.0628C102.297 91.1582 102.821 91.3572 103.326 91.6601C103.836 91.9629 104.26 92.4199 104.596 93.0312C104.933 93.6424 105.101 94.4612 105.101 95.4874V104H103.116V102.25H103.015C102.88 102.531 102.656 102.831 102.342 103.15C102.028 103.47 101.61 103.742 101.089 103.966C100.567 104.191 99.9306 104.303 99.1792 104.303ZM99.482 102.52C100.267 102.52 100.929 102.365 101.467 102.057C102.011 101.748 102.42 101.35 102.695 100.862C102.976 100.375 103.116 99.8615 103.116 99.3231V97.5062C103.032 97.6071 102.847 97.6996 102.561 97.7838C102.28 97.8623 101.955 97.9324 101.585 97.9941C101.22 98.0501 100.864 98.1006 100.517 98.1455C100.175 98.1847 99.897 98.2184 99.6839 98.2464C99.168 98.3137 98.6857 98.4231 98.2371 98.5745C97.794 98.7203 97.4351 98.9418 97.1604 99.239C96.8912 99.5306 96.7566 99.9287 96.7566 100.433C96.7566 101.123 97.0118 101.645 97.5221 101.998C98.038 102.346 98.6913 102.52 99.482 102.52ZM113.973 104.269C112.762 104.269 111.719 103.983 110.844 103.411C109.969 102.839 109.296 102.051 108.825 101.047C108.354 100.044 108.119 98.8969 108.119 97.6071C108.119 96.2949 108.36 95.1369 108.842 94.1331C109.33 93.1237 110.009 92.3358 110.878 91.7694C111.753 91.1974 112.773 90.9114 113.94 90.9114C114.848 90.9114 115.667 91.0797 116.396 91.4161C117.125 91.7526 117.722 92.2236 118.187 92.8293C118.653 93.4349 118.942 94.1415 119.054 94.949H117.069C116.917 94.3602 116.581 93.8387 116.059 93.3845C115.543 92.9246 114.848 92.6947 113.973 92.6947C113.199 92.6947 112.521 92.8966 111.938 93.3003C111.36 93.6985 110.909 94.2621 110.583 94.9911C110.264 95.7145 110.104 96.5641 110.104 97.5398C110.104 98.538 110.261 99.4072 110.575 100.147C110.895 100.888 111.343 101.462 111.921 101.872C112.504 102.281 113.188 102.486 113.973 102.486C114.489 102.486 114.957 102.396 115.378 102.217C115.799 102.037 116.155 101.779 116.446 101.443C116.738 101.106 116.945 100.703 117.069 100.232H119.054C118.942 100.994 118.664 101.681 118.221 102.292C117.784 102.898 117.203 103.38 116.48 103.739C115.762 104.093 114.927 104.269 113.973 104.269ZM123.806 99.2895L123.773 96.8332H124.177L129.829 91.0797H132.285L126.263 97.1697H126.094L123.806 99.2895ZM121.956 104V86.7729H123.941V104H121.956ZM130.166 104L125.119 97.6071L126.532 96.2276L132.689 104H130.166Z"/>
</svg>